<svg xmlns="http://www.w3.org/2000/svg" viewBox="0 0 48 48">
  <path fill="#EA4335" d="M24 9.5c3.54 0 6 1.54 7.38 2.83l5.4-5.26C33.74 3.5 29.32 1.5 24 1.5 14.64 1.5 6.64 7.86 3.6 16.26l6.93 5.38C12.3 15.1 17.64 9.5 24 9.5z"/>
  <path fill="#4285F4" d="M46.5 24.5c0-1.64-.15-3.2-.43-4.68H24v9.12h12.7c-.54 2.92-2.16 5.4-4.62 7.07l7.18 5.57C43.9 38.3 46.5 31.9 46.5 24.5z"/>
  <path fill="#FBBC05" d="M10.53 28.12a14.5 14.5 0 0 1 0-8.24l-6.93-5.38a23.97 23.97 0 0 0 0 19l6.93-5.38z"/>
  <path fill="#34A853" d="M24 46.5c6.48 0 11.9-2.13 15.87-5.8l-7.18-5.57c-2 1.35-4.58 2.17-8.69 2.17-6.36 0-11.7-4.6-13.46-10.76l-6.93 5.38C6.64 40.14 14.64 46.5 24 46.5z"/>
  <path fill="none" d="M1.5 1.5h45v45h-45z"/>
</svg>
